<?xml version="1.0" standalone="no"?>
<!DOCTYPE svg PUBLIC "-//W3C//DTD SVG 20010904//EN"
 "http://www.w3.org/TR/2001/REC-SVG-20010904/DTD/svg10.dtd">
<svg version="1.0" xmlns="http://www.w3.org/2000/svg"
 width="447.000000pt" height="184.000000pt" viewBox="0 0 447.000000 184.000000"
 preserveAspectRatio="xMidYMid meet">
<metadata>
Created by potrace 1.15, written by Peter Selinger 2001-2017
</metadata>
<g transform="translate(0.000000,184.000000) scale(0.100000,-0.100000)"
fill="#000000" stroke="none">
<path d="M0 920 l0 -920 2235 0 2235 0 0 920 0 920 -2235 0 -2235 0 0 -920z
m2200 838 c97 -17 209 -79 300 -165 l83 -78 92 -2 c109 -2 151 -12 222 -53 95
-55 173 -192 173 -303 0 -52 19 -89 62 -125 162 -132 227 -322 182 -524 -9
-38 14 -37 48 2 38 44 84 42 127 -5 l32 -36 72 6 c62 5 77 3 105 -14 17 -11
33 -29 33 -38 1 -10 3 -36 4 -58 2 -22 6 -60 9 -85 8 -54 -6 -85 -52 -116 -29
-20 -45 -22 -150 -22 -78 1 -130 6 -155 16 -32 12 -42 13 -65 1 -37 -18 -224
-22 -1117 -23 l-740 0 -41 23 -41 23 -41 -21 c-48 -24 -108 -27 -157 -7 -31
13 -39 13 -72 0 -26 -12 -46 -13 -72 -7 -20 5 -47 6 -61 2 -122 -35 -219 36
-220 160 0 104 66 171 170 171 49 0 51 1 66 39 19 47 58 68 101 54 29 -10 48
-38 58 -85 6 -32 12 -33 40 -13 18 14 18 19 6 63 -7 26 -15 85 -18 132 -10
162 44 300 172 438 69 76 72 82 93 168 33 137 80 222 173 315 110 110 222 162
394 182 37 5 113 -1 185 -15z m-1615 -127 c97 -55 102 -207 8 -278 -60 -46
-66 -67 -52 -204 11 -107 10 -129 -6 -206 -18 -83 -18 -89 0 -175 16 -78 16
-102 6 -208 -14 -136 -8 -157 52 -203 95 -72 89 -222 -11 -280 -25 -15 -52
-20 -100 -19 -186 1 -323 132 -339 322 -3 39 0 117 6 175 l13 104 -34 73 c-44
97 -44 149 0 246 l34 73 -13 104 c-23 197 7 322 98 406 96 88 249 120 338 70z
m3572 -3 c73 -27 144 -94 177 -168 35 -77 43 -169 27 -305 l-13 -104 34 -73
c44 -97 44 -149 0 -246 l-34 -73 13 -104 c6 -58 9 -136 6 -175 -16 -190 -153
-321 -339 -322 -48 -1 -75 4 -100 19 -100 58 -106 208 -11 280 60 46 66 67 52
204 -11 107 -10 129 6 206 18 83 18 89 0 175 -16 78 -16 102 -6 208 14 136 8
157 -52 203 -44 33 -67 83 -67 144 0 137 134 195 307 131z"/>
<path d="M2510 1400 c6 -11 16 -17 25 -13 13 5 13 7 -2 19 -26 19 -35 17 -23
-6z"/>
<path d="M2940 1108 c0 -7 -7 -26 -15 -42 -9 -16 -14 -30 -13 -31 2 -1 17 -7
35 -13 31 -10 32 -10 22 14 -5 14 -9 36 -9 49 0 13 -4 27 -10 30 -5 3 -10 0
-10 -7z"/>
<path d="M3197 575 c-4 -27 -19 -70 -32 -94 -28 -48 -28 -56 -4 -38 18 14 53
134 47 163 -2 10 -7 -3 -11 -31z"/>
<path d="M1080 355 c0 -94 3 -135 10 -125 5 8 10 65 10 125 0 61 -5 117 -10
125 -7 10 -10 -31 -10 -125z"/>
<path d="M1851 353 l-1 -143 -25 0 c-16 0 -25 6 -25 16 0 14 -2 14 -22 0 -44
-31 -101 -19 -124 25 -8 16 -21 29 -29 29 -10 0 -15 16 -18 53 -2 36 -4 25 -5
-35 -2 -85 -3 -88 -25 -88 -13 0 -27 4 -32 8 -6 5 -26 3 -45 -4 -35 -13 -34
-13 30 -13 44 -1 73 4 87 14 20 14 26 14 62 -5 27 -13 59 -20 98 -20 57 0 73
6 128 44 22 16 32 18 56 9 26 -10 29 -9 29 8 0 17 -8 19 -66 19 l-67 0 5 68
c3 37 2 87 -2 112 -5 32 -8 4 -9 -97z"/>
<path d="M2942 423 c-1 -35 2 -63 7 -63 13 0 21 26 11 36 -5 5 -10 27 -13 49
-3 30 -4 24 -5 -22z"/>
<path d="M2056 454 c-8 -20 0 -32 14 -18 5 5 5 15 1 22 -6 11 -10 10 -15 -4z"/>
<path d="M1370 406 c0 -9 -6 -13 -14 -10 -12 4 -13 0 -7 -22 13 -49 -3 -115
-35 -143 -17 -15 -22 -22 -11 -18 10 4 20 7 22 7 2 0 18 20 35 44 24 35 30 55
30 95 0 27 -4 53 -10 56 -5 3 -10 -1 -10 -9z"/>
<path d="M3095 390 c-32 -34 -45 -38 -45 -14 0 12 -6 9 -21 -10 l-21 -27 28
-40 c34 -49 47 -58 39 -26 -4 15 -1 30 9 40 9 8 16 26 16 39 0 13 7 34 16 46
21 31 13 28 -21 -8z"/>
<path d="M3426 402 c-6 -13 6 -142 15 -142 4 0 5 15 2 33 -3 21 1 46 11 65 9
17 16 33 16 35 0 8 -40 15 -44 9z"/>
<path d="M866 384 c-18 -17 -22 -89 -6 -99 6 -4 10 8 10 29 0 26 7 40 31 60
l31 26 -26 0 c-13 0 -32 -7 -40 -16z"/>
<path d="M1202 388 c-13 -13 -17 -104 -4 -112 5 -3 6 8 4 25 -6 39 21 79 54
79 14 0 22 4 19 10 -9 14 -58 13 -73 -2z"/>
<path d="M1711 381 c-16 -30 -13 -97 5 -115 17 -18 21 -18 49 -6 17 7 15 9
-11 9 -39 1 -49 22 -34 67 11 33 40 51 61 38 7 -4 10 -1 7 7 -8 23 -65 23 -77
0z"/>
<path d="M2062 387 c-7 -8 -9 -35 -5 -69 6 -60 19 -72 58 -57 16 6 14 8 -12 8
-31 1 -33 3 -33 35 0 35 35 90 51 81 5 -4 9 -1 9 4 0 15 -55 14 -68 -2z"/>
<path d="M2530 385 c7 -9 15 -13 17 -11 7 7 -7 26 -19 26 -6 0 -6 -6 2 -15z"/>
<path d="M2726 384 c-18 -17 -22 -89 -6 -99 6 -4 10 8 10 29 0 26 7 40 31 60
l31 26 -26 0 c-13 0 -32 -7 -40 -16z"/>
<path d="M3172 388 c-22 -22 -13 -28 38 -28 48 0 50 1 40 20 -12 23 -59 27
-78 8z"/>
<path d="M3577 393 c-13 -12 -7 -24 16 -32 22 -9 37 1 37 27 0 12 -42 17 -53
5z"/>
<path d="M1451 343 c-1 -28 2 -58 5 -67 8 -21 44 -21 44 0 0 13 3 14 14 5 10
-9 15 -8 19 3 3 8 -8 23 -31 37 -20 13 -39 35 -43 49 -5 18 -7 11 -8 -27z"/>
<path d="M2327 372 c-13 -14 -17 -38 -17 -90 0 -65 -2 -71 -22 -75 -18 -3 -16
-5 8 -6 20 0 38 6 49 19 20 22 55 26 72 9 7 -7 9 -3 6 15 -5 24 -10 26 -55 26
-50 0 -50 0 -44 28 4 15 16 39 26 54 11 15 20 30 20 33 0 12 -28 4 -43 -13z"/>
<path d="M2610 293 c0 -75 -2 -83 -19 -83 -10 0 -22 7 -25 15 -5 14 -8 14 -31
-1 -16 -10 -38 -15 -61 -12 -32 4 -34 3 -18 -9 24 -18 125 -16 173 3 35 14 42
14 76 0 48 -21 85 -20 135 1 30 13 40 23 40 40 0 18 -6 23 -25 23 -17 0 -23
-4 -19 -14 8 -21 -36 -46 -82 -46 -34 0 -49 6 -72 30 -17 17 -35 30 -41 30 -6
0 -11 17 -11 38 0 20 -5 44 -10 52 -7 10 -10 -11 -10 -67z"/>
<path d="M2211 329 c-2 -75 -71 -135 -130 -113 -21 8 -32 8 -46 -2 -16 -12
-16 -13 8 -19 35 -9 124 0 170 16 28 11 37 19 37 36 0 15 -6 23 -16 23 -12 0
-15 6 -10 24 3 13 2 35 -3 48 -9 21 -10 20 -10 -13z"/>
<path d="M3160 311 c0 -11 8 -27 18 -37 16 -17 17 -17 20 7 2 13 9 30 14 37 8
9 3 12 -21 12 -24 0 -31 -4 -31 -19z"/>
<path d="M2940 265 c0 -45 -3 -55 -17 -56 -11 0 -13 -3 -6 -6 7 -2 28 5 46 16
19 11 38 17 42 13 4 -4 -2 12 -15 35 -35 64 -50 63 -50 -2z"/>
<path d="M3605 290 c3 -5 8 -10 11 -10 2 0 4 5 4 10 0 6 -5 10 -11 10 -5 0 -7
-4 -4 -10z"/>
<path d="M2480 275 c0 -21 25 -29 47 -16 17 10 17 10 1 11 -10 0 -18 5 -18 10
0 6 -7 10 -15 10 -8 0 -15 -7 -15 -15z"/>
<path d="M2738 261 c12 -7 62 -4 62 5 0 2 -17 4 -37 4 -24 0 -33 -3 -25 -9z"/>
<path d="M3681 263 c-1 -7 -10 -22 -21 -33 -11 -11 -16 -20 -12 -20 16 0 44
39 39 52 -4 10 -6 10 -6 1z"/>
<path d="M463 1439 c-20 -6 -38 -21 -48 -39 -16 -31 -19 -121 -5 -205 7 -46 7
-43 9 38 1 86 21 154 51 172 9 5 35 46 28 44 -2 0 -18 -5 -35 -10z"/>
<path d="M423 1105 c0 -22 2 -30 4 -17 2 12 2 30 0 40 -3 9 -5 -1 -4 -23z"/>
<path d="M398 940 c-9 -16 -31 -38 -48 -48 l-31 -19 35 -21 36 -21 0 27 c1 15
7 45 15 67 17 48 15 53 -7 15z"/>
<path d="M412 578 c-20 -168 -17 -202 19 -240 l30 -33 -22 45 c-20 42 -21 53
-15 187 4 79 5 143 4 143 -2 0 -9 -46 -16 -102z"/>
<path d="M4035 1410 c10 -11 20 -20 23 -20 3 0 -3 9 -13 20 -10 11 -20 20 -23
20 -3 0 3 -9 13 -20z"/>
<path d="M4232 1177 c-20 -140 -13 -227 19 -227 6 0 6 6 0 19 -14 26 -16 89
-7 199 5 50 7 92 4 92 -2 0 -9 -37 -16 -83z"/>
<path d="M4120 875 c0 -9 6 -12 15 -9 8 4 15 7 15 9 0 2 -7 5 -15 9 -9 3 -15
0 -15 -9z"/>
<path d="M4236 788 c-18 -25 -21 -123 -7 -193 7 -33 8 -27 8 40 0 62 5 89 21
122 26 50 26 53 8 53 -8 0 -22 -10 -30 -22z"/>
<path d="M4242 520 c0 -19 2 -27 5 -17 2 9 2 25 0 35 -3 9 -5 1 -5 -18z"/>
<path d="M4242 370 c0 -14 2 -19 5 -12 2 6 2 18 0 25 -3 6 -5 1 -5 -13z"/>
<path d="M4200 270 c-6 -11 -27 -31 -48 -45 -20 -14 -33 -25 -28 -25 15 0 75
49 86 70 6 11 8 20 6 20 -3 0 -10 -9 -16 -20z"/>
</g>
</svg>
