<?xml version="1.0" standalone="no"?>
<!DOCTYPE svg PUBLIC "-//W3C//DTD SVG 20010904//EN"
 "http://www.w3.org/TR/2001/REC-SVG-20010904/DTD/svg10.dtd">
<svg version="1.0" xmlns="http://www.w3.org/2000/svg"
 width="561.000000pt" height="235.000000pt" viewBox="0 0 561.000000 235.000000"
 preserveAspectRatio="xMidYMid meet">
<metadata>
Created by potrace 1.15, written by Peter Selinger 2001-2017
</metadata>
<g transform="translate(0.000000,235.000000) scale(0.100000,-0.100000)"
fill="none" stroke="none">
<path d="M2865 2326 c-121 -39 -259 -121 -328 -193 l-28 -30 -103 5 c-317 14
-538 -148 -570 -417 l-10 -86 -56 -27 c-223 -109 -356 -370 -320 -635 29 -224
164 -387 369 -447 48 -14 163 -16 986 -16 1016 0 972 -2 1090 57 68 35 167
132 204 203 92 173 94 402 5 588 -45 94 -160 214 -241 252 l-53 25 0 63 c0
101 -26 208 -76 311 -79 161 -224 285 -406 345 -69 24 -91 26 -235 26 -137 -1
-167 -4 -228 -24z m380 -91 c288 -73 483 -328 461 -602 -3 -40 -3 -79 0 -88 4
-8 39 -31 80 -49 165 -77 266 -227 281 -418 19 -250 -127 -450 -357 -487 -87
-14 -1721 -15 -1810 -1 -295 47 -444 375 -301 665 58 116 147 200 262 246 80
31 82 34 75 101 -24 236 177 411 453 395 47 -3 98 -8 113 -12 23 -6 35 1 90
52 125 117 233 173 393 207 50 10 206 5 260 -9z" fill="#000000"/>
<path d="M450 2162 c-122 -32 -222 -114 -254 -209 -24 -70 -20 -197 9 -338 14
-66 26 -156 27 -200 2 -137 -38 -188 -159 -201 l-63 -6 0 -78 0 -78 63 -6
c121 -13 161 -64 159 -201 0 -44 -13 -135 -27 -202 -29 -142 -33 -266 -9 -336
20 -60 93 -141 155 -173 57 -28 149 -54 196 -54 l33 0 0 78 0 78 -62 12 c-73
13 -105 34 -133 84 -19 36 -19 37 2 180 31 204 34 248 23 330 -13 89 -53 177
-109 241 l-43 47 43 48 c82 92 126 234 114 366 -3 33 -15 125 -27 202 -19 122
-20 146 -8 173 19 47 68 80 139 92 l61 11 0 79 0 79 -32 -1 c-18 0 -62 -8 -98
-17z" fill="#000000"/>
<path d="M5040 2101 c0 -89 -9 -79 92 -96 44 -7 104 -59 114 -99 4 -16 -3 -85
-16 -165 -50 -295 -25 -445 98 -573 l35 -37 -43 -48 c-85 -96 -128 -234 -115
-373 3 -36 15 -127 27 -202 18 -116 19 -141 8 -168 -19 -46 -69 -79 -139 -92
l-61 -12 0 -78 0 -78 33 0 c49 0 144 27 200 57 68 37 133 113 152 176 22 74
18 180 -11 329 -59 295 -29 386 133 404 l63 6 0 78 0 78 -63 6 c-75 8 -119 33
-143 78 -26 48 -22 167 10 326 29 149 33 255 11 329 -19 63 -84 139 -152 176
-51 27 -156 57 -205 57 l-28 0 0 -79z" fill="#000000"/>
<path d="M1150 245 c0 -218 1 -225 20 -225 19 0 20 7 20 225 0 218 -1 225 -20
225 -19 0 -20 -7 -20 -225z" fill="#00ff00"/>
<path d="M2260 385 c0 -47 -3 -85 -7 -85 -5 0 -17 7 -27 15 -30 23 -98 19
-131 -7 -38 -30 -55 -76 -55 -151 0 -50 5 -71 23 -98 37 -55 121 -65 167 -19
25 25 30 25 30 0 0 -15 7 -20 25 -20 l25 0 0 225 0 225 -25 0 c-25 0 -25 -1
-25 -85z m-25 -111 c23 -15 25 -22 25 -94 0 -74 -1 -80 -28 -98 -32 -23 -57
-29 -93 -19 -37 9 -52 53 -47 128 4 49 9 66 27 80 29 23 83 24 116 3z" fill="#00ff00"/>
<path d="M2440 240 c0 -223 1 -230 20 -230 11 0 20 7 20 15 0 19 19 19 44 0
26 -19 79 -19 117 1 82 42 94 235 18 288 -36 25 -102 21 -137 -9 -17 -14 -33
-25 -36 -25 -3 0 -6 43 -6 95 0 88 -1 95 -20 95 -19 0 -20 -7 -20 -230z m174
39 c34 -16 49 -59 44 -124 -8 -96 -69 -132 -145 -85 -32 19 -33 21 -33 94 l0
75 43 25 c48 29 56 31 91 15z" fill="#00ff00"/>
<path d="M3700 245 l0 -225 25 0 c24 0 25 2 25 75 0 41 3 75 6 75 3 0 38 -34
77 -76 61 -65 76 -75 100 -72 28 3 28 4 -43 81 l-72 77 38 46 c22 25 50 59 63
75 l24 29 -24 0 c-17 0 -45 -22 -96 -77 l-72 -78 -1 148 0 147 -25 0 -25 0 0
-225z" fill="#00ff00"/>
<path d="M4397 384 c-4 -4 -7 -18 -7 -31 0 -16 -6 -23 -20 -23 -13 0 -20 -7
-20 -19 0 -10 9 -21 20 -24 18 -5 20 -14 20 -117 0 -105 1 -112 25 -136 20
-20 34 -25 63 -22 26 2 38 8 40 21 3 13 -3 17 -26 17 -47 0 -56 20 -56 133
l-1 102 43 3 c33 3 42 7 42 22 0 15 -9 19 -42 22 -38 3 -43 6 -43 28 0 24 -23
38 -38 24z" fill="#00ff00"/>
<path d="M883 311 c-43 -27 -66 -74 -66 -136 0 -56 12 -86 51 -127 30 -32 74
-43 137 -34 39 6 45 11 45 31 0 22 -2 23 -35 13 -97 -30 -171 64 -134 170 16
47 52 65 116 60 50 -4 54 -3 51 16 -3 19 -11 21 -68 24 -51 2 -72 -2 -97 -17z" fill="#00ff00"/>
<path d="M1363 310 c-45 -27 -63 -68 -63 -141 0 -102 52 -159 145 -159 96 0
157 86 140 196 -5 37 -16 57 -45 86 -34 35 -43 38 -91 38 -36 0 -65 -7 -86
-20z m146 -45 c62 -80 23 -215 -63 -215 -48 0 -65 8 -81 41 -29 55 -12 177 27
192 7 3 32 6 55 6 33 1 46 -4 62 -24z" fill="#00ff00"/>
<path d="M1680 205 c0 -140 12 -180 55 -191 37 -9 90 3 110 26 23 25 35 25 35
0 0 -15 7 -20 25 -20 l25 0 0 156 0 155 -22 -3 c-22 -3 -23 -8 -26 -108 -3
-115 -10 -131 -70 -157 -30 -12 -37 -12 -58 2 -23 15 -24 19 -24 140 l0 125
-25 0 -25 0 0 -125z" fill="#00ff00"/>
<path d="M2820 175 c0 -148 1 -155 20 -155 19 0 20 7 20 99 0 92 2 102 26 130
15 18 39 33 60 37 24 4 34 12 34 25 0 28 -42 24 -78 -6 -17 -14 -33 -25 -36
-25 -3 0 -6 11 -6 25 0 18 -5 25 -20 25 -19 0 -20 -7 -20 -155z" fill="#00ff00"/>
<path d="M3083 320 c-13 -5 -23 -18 -23 -29 0 -18 3 -19 26 -11 37 14 100 12
113 -3 6 -8 14 -27 17 -44 l6 -30 -61 -7 c-43 -5 -69 -14 -90 -32 -89 -75 -2
-198 99 -139 48 27 51 28 66 6 16 -22 58 -29 69 -10 4 5 -5 21 -19 34 -25 23
-26 29 -26 128 0 95 -2 105 -23 125 -18 17 -35 22 -78 21 -30 0 -64 -4 -76 -9z
m135 -192 c3 -33 -1 -40 -30 -58 -41 -25 -59 -25 -88 -2 -49 39 8 105 85 99
27 -2 30 -6 33 -39z" fill="#00ff00"/>
<path d="M3433 311 c-44 -27 -63 -69 -63 -136 0 -61 9 -86 48 -127 30 -32 74
-43 137 -34 39 6 45 11 45 31 0 22 -2 23 -35 13 -97 -30 -171 64 -134 170 16
47 52 65 116 60 50 -4 54 -3 51 16 -3 19 -11 21 -68 24 -51 2 -72 -2 -97 -17z" fill="#00ff00"/>
<path d="M4086 309 c-39 -31 -56 -71 -56 -136 0 -121 81 -182 209 -157 21 5
31 12 31 25 0 16 -6 17 -50 12 -61 -7 -106 10 -125 48 -29 56 -24 59 81 59
l96 0 -4 57 c-4 48 -10 61 -37 85 -40 36 -104 39 -145 7z m111 -27 c15 -10 35
-61 27 -73 -3 -5 -36 -9 -75 -9 -65 0 -69 1 -69 23 0 49 74 87 117 59z" fill="#00ff00"/>
<path d="M4625 306 c-30 -30 -33 -74 -6 -107 10 -12 42 -34 72 -48 43 -21 55
-31 57 -53 2 -19 -3 -30 -19 -38 -22 -12 -80 -10 -111 4 -15 7 -18 3 -18 -17
0 -23 5 -27 45 -33 94 -14 155 22 155 91 0 38 -24 62 -97 99 -43 21 -53 31
-53 51 0 29 28 39 90 33 36 -3 40 -1 38 17 -3 17 -11 20 -65 23 -56 3 -66 0
-88 -22z" fill="#00ff00"/>
</g>
</svg>
